# xmcd
#
# Track frame offsets:
#	150
#	20861
#	40483
#	54897
#	66817
#	86968
#	100499
#	117439
#	133558
#	150249
#	165790
#	183364
#	201025
#	216650
#	233860
#	246881
#	266446
#	278037
#	299785
#	316760
#
# Disc length: 4444 seconds
#
# Revision: 1
# Processed by: cddbd v1.5.1PL0 Copyright (c) Steve Scherf et al.
# Submitted via: audiograbber 1.83.01
#
DISCID=27115a14
DTITLE=Garth Brooks - The Hits
DYEAR=1900
DGENRE=Country
TTITLE0=Garth Brooks - Aint Going Down (Til The Sun Comes Up)
TTITLE1=Garth Brooks - Friends In Low Places
TTITLE2=GARTH BROOKS - BURNING BRIDGES (1)
TTITLE3=Garth Brooks - Callin Baton Rouge
TTITLE4=Garth Brooks - The River
TTITLE5=Garth Brooks - Much Too Young (To Feel This Damn Old)
TTITLE6=Garth Brooks - The Thunder Rolls
TTITLE7=Garth Brooks - American Honky Tonk Bar Association
TTITLE8=Garth Brooks - If Tomorrow Never Comes
TTITLE9=Garth Brooks - Unanswered Prayers
TTITLE10=Garth Brooks - Standing Outside The Fire
TTITLE11=Garth Brooks - Rodeo
TTITLE12=Garth Brooks - What She's Doing Now
TTITLE13=Garth Brooks - We Shall Be Free
TTITLE14=Garth Brooks - Papa Loved Mama
TTITLE15=Garth Brooks - Shameless
TTITLE16=Garth Brooks - Two Of A Kind Working On A Full House
TTITLE17=Garth Brooks - That Summer
TTITLE18=Garth Brooks - The Red Strokes
TTITLE19=Garth Brooks - The Dance
EXTD=
EXTT0=
EXTT1=
EXTT2=
EXTT3=
EXTT4=
EXTT5=
EXTT6=
EXTT7=
EXTT8=
EXTT9=
EXTT10=
EXTT11=
EXTT12=
EXTT13=
EXTT14=
EXTT15=
EXTT16=
EXTT17=
EXTT18=
EXTT19=
PLAYORDER=
